<mxfile host="app.diagrams.net" agent="Mozilla/5.0 (Windows NT 10.0; Win64; x64) AppleWebKit/537.36 (KHTML, like Gecko) Chrome/127.0.0.0 Safari/537.36" version="24.7.7">
  <diagram name="Page-1" id="jcNndrxe-URrK9e5Chia">
    <mxGraphModel dx="1323" dy="743" grid="0" gridSize="10" guides="1" tooltips="1" connect="1" arrows="1" fold="1" page="1" pageScale="1" pageWidth="850" pageHeight="1100" math="0" shadow="0">
      <root>
        <mxCell id="0" />
        <mxCell id="1" parent="0" />
        <mxCell id="c30t2qVmGA0mVTKmBVB8-1" value="" style="group" vertex="1" connectable="0" parent="1">
          <mxGeometry x="225" y="90" width="400" height="370" as="geometry" />
        </mxCell>
        <mxCell id="8ThRldzjLZEK7XOQSWFc-1" value="" style="shape=image;html=1;verticalAlign=top;verticalLabelPosition=bottom;labelBackgroundColor=#ffffff;imageAspect=0;aspect=fixed;image=https://cdn0.iconfinder.com/data/icons/construction-2-21/512/construction-industry-building-41-128.png" parent="c30t2qVmGA0mVTKmBVB8-1" vertex="1">
          <mxGeometry x="60" y="2" width="128" height="128" as="geometry" />
        </mxCell>
        <mxCell id="8ThRldzjLZEK7XOQSWFc-2" value="" style="shape=image;html=1;verticalAlign=top;verticalLabelPosition=bottom;labelBackgroundColor=#ffffff;imageAspect=0;aspect=fixed;image=https://cdn0.iconfinder.com/data/icons/construction-2-21/512/construction-industry-building-41-128.png" parent="c30t2qVmGA0mVTKmBVB8-1" vertex="1">
          <mxGeometry x="150" y="122" width="128" height="128" as="geometry" />
        </mxCell>
        <mxCell id="8ThRldzjLZEK7XOQSWFc-3" value="" style="shape=image;html=1;verticalAlign=top;verticalLabelPosition=bottom;labelBackgroundColor=#ffffff;imageAspect=0;aspect=fixed;image=https://cdn0.iconfinder.com/data/icons/construction-2-21/512/construction-industry-building-41-128.png" parent="c30t2qVmGA0mVTKmBVB8-1" vertex="1">
          <mxGeometry x="240" y="242" width="128" height="128" as="geometry" />
        </mxCell>
        <mxCell id="8ThRldzjLZEK7XOQSWFc-4" value="&lt;b&gt;I/P&lt;/b&gt;" style="text;html=1;align=center;verticalAlign=middle;resizable=0;points=[];autosize=1;strokeColor=none;fillColor=none;" parent="c30t2qVmGA0mVTKmBVB8-1" vertex="1">
          <mxGeometry width="40" height="30" as="geometry" />
        </mxCell>
        <mxCell id="8ThRldzjLZEK7XOQSWFc-5" value="&lt;b&gt;O/P&lt;/b&gt;" style="text;html=1;align=center;verticalAlign=middle;resizable=0;points=[];autosize=1;strokeColor=none;fillColor=none;" parent="c30t2qVmGA0mVTKmBVB8-1" vertex="1">
          <mxGeometry x="180" y="100" width="40" height="30" as="geometry" />
        </mxCell>
        <mxCell id="8ThRldzjLZEK7XOQSWFc-6" value="&lt;b&gt;I/P&lt;/b&gt;" style="text;html=1;align=center;verticalAlign=middle;resizable=0;points=[];autosize=1;strokeColor=none;fillColor=none;" parent="c30t2qVmGA0mVTKmBVB8-1" vertex="1">
          <mxGeometry x="170" y="130" width="40" height="30" as="geometry" />
        </mxCell>
        <mxCell id="8ThRldzjLZEK7XOQSWFc-7" value="&lt;b&gt;O/P&lt;/b&gt;" style="text;html=1;align=center;verticalAlign=middle;resizable=0;points=[];autosize=1;strokeColor=none;fillColor=none;" parent="c30t2qVmGA0mVTKmBVB8-1" vertex="1">
          <mxGeometry x="270" y="212" width="40" height="30" as="geometry" />
        </mxCell>
        <mxCell id="8ThRldzjLZEK7XOQSWFc-8" value="&lt;b&gt;I/P&lt;/b&gt;" style="text;html=1;align=center;verticalAlign=middle;resizable=0;points=[];autosize=1;strokeColor=none;fillColor=none;" parent="c30t2qVmGA0mVTKmBVB8-1" vertex="1">
          <mxGeometry x="270" y="250" width="40" height="30" as="geometry" />
        </mxCell>
        <mxCell id="8ThRldzjLZEK7XOQSWFc-9" value="&lt;b&gt;O/P&lt;/b&gt;" style="text;html=1;align=center;verticalAlign=middle;resizable=0;points=[];autosize=1;strokeColor=none;fillColor=none;" parent="c30t2qVmGA0mVTKmBVB8-1" vertex="1">
          <mxGeometry x="360" y="340" width="40" height="30" as="geometry" />
        </mxCell>
        <mxCell id="c30t2qVmGA0mVTKmBVB8-2" value="" style="group" vertex="1" connectable="0" parent="1">
          <mxGeometry x="173" y="691" width="490" height="228" as="geometry" />
        </mxCell>
        <mxCell id="8ThRldzjLZEK7XOQSWFc-17" style="edgeStyle=orthogonalEdgeStyle;rounded=0;orthogonalLoop=1;jettySize=auto;html=1;entryX=0.75;entryY=0;entryDx=0;entryDy=0;" parent="c30t2qVmGA0mVTKmBVB8-2" source="8ThRldzjLZEK7XOQSWFc-10" target="8ThRldzjLZEK7XOQSWFc-12" edge="1">
          <mxGeometry relative="1" as="geometry" />
        </mxCell>
        <mxCell id="8ThRldzjLZEK7XOQSWFc-10" value="&lt;b&gt;ESC Mode&lt;/b&gt;" style="rounded=1;whiteSpace=wrap;html=1;fillColor=#dae8fc;gradientColor=#7ea6e0;strokeColor=#6c8ebf;" parent="c30t2qVmGA0mVTKmBVB8-2" vertex="1">
          <mxGeometry x="200" width="120" height="60" as="geometry" />
        </mxCell>
        <mxCell id="8ThRldzjLZEK7XOQSWFc-15" style="edgeStyle=orthogonalEdgeStyle;rounded=0;orthogonalLoop=1;jettySize=auto;html=1;entryX=0.25;entryY=1;entryDx=0;entryDy=0;" parent="c30t2qVmGA0mVTKmBVB8-2" source="8ThRldzjLZEK7XOQSWFc-11" target="8ThRldzjLZEK7XOQSWFc-10" edge="1">
          <mxGeometry relative="1" as="geometry" />
        </mxCell>
        <mxCell id="8ThRldzjLZEK7XOQSWFc-11" value="&lt;b&gt;Colon/Command Mode&lt;/b&gt;" style="rounded=1;whiteSpace=wrap;html=1;fillColor=#e6d0de;gradientColor=#d5739d;strokeColor=#996185;" parent="c30t2qVmGA0mVTKmBVB8-2" vertex="1">
          <mxGeometry y="120" width="120" height="60" as="geometry" />
        </mxCell>
        <mxCell id="8ThRldzjLZEK7XOQSWFc-12" value="&lt;b&gt;Insert Mode&lt;/b&gt;" style="rounded=1;whiteSpace=wrap;html=1;fillColor=#d5e8d4;gradientColor=#97d077;strokeColor=#82b366;" parent="c30t2qVmGA0mVTKmBVB8-2" vertex="1">
          <mxGeometry x="370" y="120" width="120" height="60" as="geometry" />
        </mxCell>
        <mxCell id="8ThRldzjLZEK7XOQSWFc-13" style="edgeStyle=orthogonalEdgeStyle;rounded=0;orthogonalLoop=1;jettySize=auto;html=1;entryX=0.577;entryY=-0.02;entryDx=0;entryDy=0;entryPerimeter=0;" parent="c30t2qVmGA0mVTKmBVB8-2" source="8ThRldzjLZEK7XOQSWFc-10" target="8ThRldzjLZEK7XOQSWFc-11" edge="1">
          <mxGeometry relative="1" as="geometry" />
        </mxCell>
        <mxCell id="8ThRldzjLZEK7XOQSWFc-14" value="&lt;b&gt;:&lt;/b&gt;" style="text;html=1;align=center;verticalAlign=middle;resizable=0;points=[];autosize=1;strokeColor=none;fillColor=none;" parent="c30t2qVmGA0mVTKmBVB8-2" vertex="1">
          <mxGeometry x="135" y="30" width="30" height="30" as="geometry" />
        </mxCell>
        <mxCell id="8ThRldzjLZEK7XOQSWFc-16" value="&lt;b&gt;Esc&lt;/b&gt;" style="text;html=1;align=center;verticalAlign=middle;resizable=0;points=[];autosize=1;strokeColor=none;fillColor=none;" parent="c30t2qVmGA0mVTKmBVB8-2" vertex="1">
          <mxGeometry x="160" y="150" width="40" height="30" as="geometry" />
        </mxCell>
        <mxCell id="8ThRldzjLZEK7XOQSWFc-18" value="&lt;b&gt;i&lt;/b&gt;" style="text;html=1;align=center;verticalAlign=middle;resizable=0;points=[];autosize=1;strokeColor=none;fillColor=none;" parent="c30t2qVmGA0mVTKmBVB8-2" vertex="1">
          <mxGeometry x="400" y="38" width="30" height="30" as="geometry" />
        </mxCell>
        <mxCell id="8ThRldzjLZEK7XOQSWFc-19" style="edgeStyle=orthogonalEdgeStyle;rounded=0;orthogonalLoop=1;jettySize=auto;html=1;entryX=0.617;entryY=1.06;entryDx=0;entryDy=0;entryPerimeter=0;" parent="c30t2qVmGA0mVTKmBVB8-2" source="8ThRldzjLZEK7XOQSWFc-12" target="8ThRldzjLZEK7XOQSWFc-10" edge="1">
          <mxGeometry relative="1" as="geometry" />
        </mxCell>
        <mxCell id="8ThRldzjLZEK7XOQSWFc-20" value="&lt;b&gt;Esc&lt;/b&gt;" style="text;html=1;align=center;verticalAlign=middle;resizable=0;points=[];autosize=1;strokeColor=none;fillColor=none;" parent="c30t2qVmGA0mVTKmBVB8-2" vertex="1">
          <mxGeometry x="300" y="150" width="40" height="30" as="geometry" />
        </mxCell>
        <mxCell id="8ThRldzjLZEK7XOQSWFc-21" value="&lt;b&gt;:q&lt;/b&gt;" style="text;html=1;align=center;verticalAlign=middle;resizable=0;points=[];autosize=1;strokeColor=none;fillColor=none;" parent="c30t2qVmGA0mVTKmBVB8-2" vertex="1">
          <mxGeometry x="15" y="198" width="30" height="30" as="geometry" />
        </mxCell>
        <mxCell id="8ThRldzjLZEK7XOQSWFc-22" value="&lt;b&gt;shift+g --&amp;gt; go to bottom&lt;/b&gt;" style="text;html=1;align=center;verticalAlign=middle;resizable=0;points=[];autosize=1;strokeColor=none;fillColor=none;" parent="c30t2qVmGA0mVTKmBVB8-2" vertex="1">
          <mxGeometry x="170" y="178" width="160" height="30" as="geometry" />
        </mxCell>
        <mxCell id="c30t2qVmGA0mVTKmBVB8-10" value="" style="group" vertex="1" connectable="0" parent="1">
          <mxGeometry x="72" y="477" width="448" height="128" as="geometry" />
        </mxCell>
        <mxCell id="c30t2qVmGA0mVTKmBVB8-5" style="edgeStyle=orthogonalEdgeStyle;rounded=0;orthogonalLoop=1;jettySize=auto;html=1;strokeWidth=2;" edge="1" parent="c30t2qVmGA0mVTKmBVB8-10" source="c30t2qVmGA0mVTKmBVB8-3">
          <mxGeometry relative="1" as="geometry">
            <mxPoint x="204.777811686198" y="64" as="targetPoint" />
          </mxGeometry>
        </mxCell>
        <mxCell id="c30t2qVmGA0mVTKmBVB8-3" value="" style="shape=image;html=1;verticalAlign=top;verticalLabelPosition=bottom;labelBackgroundColor=#ffffff;imageAspect=0;aspect=fixed;image=https://cdn0.iconfinder.com/data/icons/construction-2-21/512/construction-industry-building-41-128.png" vertex="1" parent="c30t2qVmGA0mVTKmBVB8-10">
          <mxGeometry width="128" height="128" as="geometry" />
        </mxCell>
        <mxCell id="c30t2qVmGA0mVTKmBVB8-9" value="&lt;font size=&quot;1&quot; style=&quot;&quot;&gt;&lt;b style=&quot;font-size: 14px;&quot;&gt;This is Complete Piece is One Pipe&lt;/b&gt;&lt;/font&gt;" style="text;html=1;align=center;verticalAlign=middle;resizable=0;points=[];autosize=1;strokeColor=none;fillColor=none;" vertex="1" parent="c30t2qVmGA0mVTKmBVB8-10">
          <mxGeometry x="197" y="52" width="251" height="29" as="geometry" />
        </mxCell>
      </root>
    </mxGraphModel>
  </diagram>
</mxfile>
